<svg width="135" height="22" viewBox="0 0 135 22" fill="none" xmlns="http://www.w3.org/2000/svg">
<path d="M10.0149 1.06713C10.4783 -0.355711 12.4913 -0.355711 12.9533 1.06713L14.6063 6.15292C14.7073 6.46265 14.9036 6.73253 15.1672 6.92398C15.4308 7.11543 15.7481 7.21865 16.0739 7.21889H21.4223C22.9193 7.21889 23.5404 9.13456 22.3307 10.0151L18.005 13.1575C17.7409 13.3491 17.5442 13.6194 17.4432 13.9297C17.3422 14.24 17.342 14.5743 17.4427 14.8846L19.0957 19.9704C19.5592 21.3933 17.9293 22.5782 16.7166 21.6976L12.3909 18.5553C12.1271 18.3637 11.8093 18.2606 11.4833 18.2606C11.1572 18.2606 10.8395 18.3637 10.5757 18.5553L6.24996 21.6976C5.03877 22.5782 3.41045 21.3933 3.87238 19.9704L5.52541 14.8846C5.6261 14.5743 5.62592 14.24 5.5249 13.9297C5.42387 13.6194 5.2272 13.3491 4.96307 13.1575L0.638918 10.0167C-0.570733 9.1361 0.0518589 7.22044 1.54731 7.22044H6.89418C7.22023 7.22052 7.53794 7.11745 7.80185 6.92598C8.06575 6.73451 8.2623 6.46445 8.36338 6.15446L10.0164 1.06868L10.0149 1.06713Z" fill="#FFCC00"/>
<path d="M37.823 1.06713C38.2864 -0.355711 40.2994 -0.355711 40.7614 1.06713L42.4144 6.15292C42.5154 6.46265 42.7117 6.73253 42.9753 6.92398C43.2389 7.11543 43.5563 7.21865 43.882 7.21889H49.2305C50.7275 7.21889 51.3485 9.13456 50.1388 10.0151L45.8132 13.1575C45.549 13.3491 45.3523 13.6194 45.2513 13.9297C45.1503 14.24 45.1501 14.5743 45.2508 14.8846L46.9038 19.9704C47.3673 21.3933 45.7375 22.5782 44.5247 21.6976L40.199 18.5553C39.9352 18.3637 39.6175 18.2606 39.2914 18.2606C38.9653 18.2606 38.6476 18.3637 38.3838 18.5553L34.0581 21.6976C32.8469 22.5782 31.2186 21.3933 31.6805 19.9704L33.3335 14.8846C33.4342 14.5743 33.434 14.24 33.333 13.9297C33.232 13.6194 33.0353 13.3491 32.7712 13.1575L28.447 10.0167C27.2374 9.1361 27.86 7.22044 29.3554 7.22044H34.7023C35.0283 7.22052 35.3461 7.11745 35.61 6.92598C35.8739 6.73451 36.0704 6.46445 36.1715 6.15446L37.8245 1.06868L37.823 1.06713Z" fill="#FFCC00"/>
<path d="M65.6311 1.06713C66.0945 -0.355711 68.1075 -0.355711 68.5695 1.06713L70.2225 6.15292C70.3235 6.46265 70.5198 6.73253 70.7834 6.92398C71.047 7.11543 71.3644 7.21865 71.6901 7.21889H77.0386C78.5356 7.21889 79.1566 9.13456 77.947 10.0151L73.6213 13.1575C73.3571 13.3491 73.1605 13.6194 73.0594 13.9297C72.9584 14.24 72.9582 14.5743 73.0589 14.8846L74.712 19.9704C75.1754 21.3933 73.5456 22.5782 72.3328 21.6976L68.0071 18.5553C67.7433 18.3637 67.4256 18.2606 67.0995 18.2606C66.7734 18.2606 66.4557 18.3637 66.1919 18.5553L61.8662 21.6976C60.655 22.5782 59.0267 21.3933 59.4886 19.9704L61.1416 14.8846C61.2423 14.5743 61.2421 14.24 61.1411 13.9297C61.0401 13.6194 60.8434 13.3491 60.5793 13.1575L56.2551 10.0167C55.0455 9.1361 55.6681 7.22044 57.1635 7.22044H62.5104C62.8364 7.22052 63.1542 7.11745 63.4181 6.92598C63.682 6.73451 63.8785 6.46445 63.9796 6.15446L65.6326 1.06868L65.6311 1.06713Z" fill="#FFCC00"/>
<path d="M93.4392 1.06713C93.9026 -0.355711 95.9156 -0.355711 96.3776 1.06713L98.0306 6.15292C98.1316 6.46265 98.3279 6.73253 98.5915 6.92398C98.8551 7.11543 99.1725 7.21865 99.4982 7.21889H104.847C106.344 7.21889 106.965 9.13456 105.755 10.0151L101.429 13.1575C101.165 13.3491 100.969 13.6194 100.868 13.9297C100.767 14.24 100.766 14.5743 100.867 14.8846L102.52 19.9704C102.984 21.3933 101.354 22.5782 100.141 21.6976L95.8152 18.5553C95.5514 18.3637 95.2337 18.2606 94.9076 18.2606C94.5815 18.2606 94.2638 18.3637 94 18.5553L89.6743 21.6976C88.4631 22.5782 86.8348 21.3933 87.2967 19.9704L88.9497 14.8846C89.0504 14.5743 89.0502 14.24 88.9492 13.9297C88.8482 13.6194 88.6515 13.3491 88.3874 13.1575L84.0632 10.0167C82.8536 9.1361 83.4762 7.22044 84.9716 7.22044H90.3185C90.6445 7.22052 90.9623 7.11745 91.2262 6.92598C91.4901 6.73451 91.6866 6.46445 91.7877 6.15446L93.4407 1.06868L93.4392 1.06713Z" fill="#FFCC00"/>
<path d="M121.247 1.06713C121.711 -0.355711 123.724 -0.355711 124.185 1.06713L125.838 6.15292C125.939 6.46265 126.136 6.73253 126.399 6.92398C126.663 7.11543 126.98 7.21865 127.306 7.21889H132.655C134.152 7.21889 134.773 9.13456 133.563 10.0151L129.237 13.1575C128.973 13.3491 128.776 13.6194 128.675 13.9297C128.574 14.24 128.574 14.5743 128.675 14.8846L130.328 19.9704C130.791 21.3933 129.162 22.5782 127.949 21.6976L123.623 18.5553C123.359 18.3637 123.042 18.2606 122.715 18.2606C122.389 18.2606 122.072 18.3637 121.808 18.5553L117.482 21.6976C116.271 22.5782 114.643 21.3933 115.105 19.9704L116.758 14.8846C116.858 14.5743 116.858 14.24 116.757 13.9297C116.656 13.6194 116.459 13.3491 116.195 13.1575L111.871 10.0167C110.661 9.1361 111.284 7.22044 112.779 7.22044H118.126C118.452 7.22052 118.77 7.11745 119.034 6.92598C119.298 6.73451 119.494 6.46445 119.596 6.15446L121.249 1.06868L121.247 1.06713Z" fill="#FFCC00"/>
</svg>
