<svg width="10" height="20" viewBox="0 0 10 20" fill="none" xmlns="http://www.w3.org/2000/svg">
<path d="M8.58963 0.248308C8.91858 0.247665 9.23738 0.362232 9.49068 0.572125C9.63324 0.690315 9.75108 0.835472 9.83746 0.999277C9.92384 1.16308 9.97705 1.34231 9.99405 1.52672C10.0111 1.71112 9.99151 1.89706 9.93654 2.0739C9.88157 2.25073 9.79225 2.41499 9.67371 2.55725L3.36634 10.1036L9.44844 17.664C9.56539 17.808 9.65272 17.9737 9.70542 18.1516C9.75812 18.3294 9.77515 18.516 9.75553 18.7004C9.7359 18.8849 9.68001 19.0637 9.59107 19.2265C9.50213 19.3893 9.38189 19.5329 9.23726 19.6491C9.09159 19.7773 8.921 19.8739 8.7362 19.9331C8.55139 19.9922 8.35636 20.0125 8.16335 19.9926C7.97034 19.9728 7.78351 19.9133 7.61459 19.8178C7.44566 19.7224 7.2983 19.593 7.18173 19.4379L0.3816 10.9905C0.174523 10.7386 0.0613214 10.4226 0.0613213 10.0965C0.0613213 9.77043 0.174523 9.45444 0.381599 9.20252L7.42107 0.755152C7.56231 0.584772 7.74172 0.450087 7.94475 0.362024C8.14779 0.273962 8.36872 0.235003 8.58963 0.248308Z" fill="#FF7937"/>
</svg>
