<svg width="104" height="17" viewBox="0 0 104 17" fill="none" xmlns="http://www.w3.org/2000/svg">
<path d="M7.73876 0.824604C8.09689 -0.274868 9.65239 -0.274868 10.0093 0.824604L11.2867 4.75453C11.3647 4.99387 11.5164 5.20241 11.7201 5.35035C11.9238 5.49829 12.169 5.57805 12.4208 5.57824H16.5536C17.7104 5.57824 18.1903 7.05852 17.2556 7.73898L13.913 10.1671C13.7089 10.3152 13.5569 10.5241 13.4789 10.7638C13.4008 11.0036 13.4007 11.2619 13.4785 11.5018L14.7558 15.4317C15.1139 16.5312 13.8545 17.4468 12.9174 16.7663L9.57479 14.3382C9.3709 14.1902 9.12541 14.1104 8.87345 14.1104C8.62149 14.1104 8.37599 14.1902 8.1721 14.3382L4.82952 16.7663C3.89359 17.4468 2.63535 16.5312 2.99229 15.4317L4.26964 11.5018C4.34744 11.2619 4.3473 11.0036 4.26924 10.7638C4.19118 10.5241 4.0392 10.3152 3.8351 10.1671L0.493709 7.74017C-0.441021 7.05972 0.0400728 5.57943 1.19565 5.57943H5.32732C5.57927 5.5795 5.82478 5.49985 6.0287 5.35189C6.23262 5.20394 6.38451 4.99525 6.46261 4.75572L7.73995 0.825797L7.73876 0.824604Z" fill="#FFCC00"/>
<path d="M29.2268 0.824604C29.5849 -0.274868 31.1404 -0.274868 31.4974 0.824604L32.7747 4.75453C32.8528 4.99387 33.0045 5.20241 33.2081 5.35035C33.4118 5.49829 33.6571 5.57805 33.9088 5.57824H38.0417C39.1984 5.57824 39.6783 7.05852 38.7436 7.73898L35.401 10.1671C35.1969 10.3152 35.045 10.5241 34.9669 10.7638C34.8888 11.0036 34.8887 11.2619 34.9665 11.5018L36.2438 15.4317C36.602 16.5312 35.3425 17.4468 34.4054 16.7663L31.0628 14.3382C30.8589 14.1902 30.6134 14.1104 30.3615 14.1104C30.1095 14.1104 29.864 14.1902 29.6601 14.3382L26.3176 16.7663C25.3816 17.4468 24.1234 16.5312 24.4803 15.4317L25.7577 11.5018C25.8355 11.2619 25.8353 11.0036 25.7573 10.7638C25.6792 10.5241 25.5272 10.3152 25.3231 10.1671L21.9817 7.74017C21.047 7.05972 21.5281 5.57943 22.6837 5.57943H26.8154C27.0673 5.5795 27.3128 5.49985 27.5167 5.35189C27.7207 5.20394 27.8725 4.99525 27.9506 4.75572L29.228 0.825797L29.2268 0.824604Z" fill="#FFCC00"/>
<path d="M50.7148 0.824604C51.073 -0.274868 52.6285 -0.274868 52.9854 0.824604L54.2627 4.75453C54.3408 4.99387 54.4925 5.20241 54.6962 5.35035C54.8999 5.49829 55.1451 5.57805 55.3968 5.57824H59.5297C60.6865 5.57824 61.1664 7.05852 60.2316 7.73898L56.8891 10.1671C56.685 10.3152 56.533 10.5241 56.4549 10.7638C56.3769 11.0036 56.3767 11.2619 56.4545 11.5018L57.7319 15.4317C58.09 16.5312 56.8306 17.4468 55.8935 16.7663L52.5509 14.3382C52.347 14.1902 52.1015 14.1104 51.8495 14.1104C51.5976 14.1104 51.3521 14.1902 51.1482 14.3382L47.8056 16.7663C46.8697 17.4468 45.6114 16.5312 45.9684 15.4317L47.2457 11.5018C47.3235 11.2619 47.3234 11.0036 47.2453 10.7638C47.1672 10.5241 47.0153 10.3152 46.8112 10.1671L43.4698 7.74017C42.5351 7.05972 43.0161 5.57943 44.1717 5.57943H48.3034C48.5553 5.5795 48.8008 5.49985 49.0048 5.35189C49.2087 5.20394 49.3606 4.99525 49.4387 4.75572L50.716 0.825797L50.7148 0.824604Z" fill="#FFCC00"/>
<path d="M72.2029 0.824604C72.561 -0.274868 74.1165 -0.274868 74.4734 0.824604L75.7508 4.75453C75.8288 4.99387 75.9805 5.20241 76.1842 5.35035C76.3879 5.49829 76.6331 5.57805 76.8849 5.57824H81.0177C82.1745 5.57824 82.6544 7.05852 81.7197 7.73898L78.3771 10.1671C78.173 10.3152 78.021 10.5241 77.943 10.7638C77.8649 11.0036 77.8648 11.2619 77.9426 11.5018L79.2199 15.4317C79.578 16.5312 78.3186 17.4468 77.3815 16.7663L74.0389 14.3382C73.835 14.1902 73.5895 14.1104 73.3376 14.1104C73.0856 14.1104 72.8401 14.1902 72.6362 14.3382L69.2936 16.7663C68.3577 17.4468 67.0995 16.5312 67.4564 15.4317L68.7337 11.5018C68.8116 11.2619 68.8114 11.0036 68.7333 10.7638C68.6553 10.5241 68.5033 10.3152 68.2992 10.1671L64.9578 7.74017C64.0231 7.05972 64.5042 5.57943 65.6598 5.57943H69.7914C70.0434 5.5795 70.2889 5.49985 70.4928 5.35189C70.6967 5.20394 70.8486 4.99525 70.9267 4.75572L72.2041 0.825797L72.2029 0.824604Z" fill="#FFCC00"/>
<path d="M93.6909 0.824604C94.049 -0.274868 95.6045 -0.274868 95.9615 0.824604L97.2388 4.75453C97.3169 4.99387 97.4686 5.20241 97.6723 5.35035C97.8759 5.49829 98.1212 5.57805 98.3729 5.57824H102.506C103.663 5.57824 104.142 7.05852 103.208 7.73898L99.8651 10.1671C99.661 10.3152 99.5091 10.5241 99.431 10.7638C99.3529 11.0036 99.3528 11.2619 99.4306 11.5018L100.708 15.4317C101.066 16.5312 99.8066 17.4468 98.8695 16.7663L95.5269 14.3382C95.3231 14.1902 95.0776 14.1104 94.8256 14.1104C94.5736 14.1104 94.3281 14.1902 94.1243 14.3382L90.7817 16.7663C89.8457 17.4468 88.5875 16.5312 88.9444 15.4317L90.2218 11.5018C90.2996 11.2619 90.2994 11.0036 90.2214 10.7638C90.1433 10.5241 89.9913 10.3152 89.7872 10.1671L86.4459 7.74017C85.5111 7.05972 85.9922 5.57943 87.1478 5.57943H91.2795C91.5314 5.5795 91.7769 5.49985 91.9808 5.35189C92.1848 5.20394 92.3367 4.99525 92.4148 4.75572L93.6921 0.825797L93.6909 0.824604Z" fill="#FFCC00"/>
</svg>
