<svg width="34" height="34" viewBox="0 0 34 34" fill="none" xmlns="http://www.w3.org/2000/svg">
<path d="M17 34C26.3888 34 34 26.3888 34 17C34 7.61116 26.3888 0 17 0C7.61116 0 0 7.61116 0 17C0 26.3888 7.61116 34 17 34Z" fill="#039BE5"/>
<path d="M7.77978 16.6315L24.1706 10.3117C24.9314 10.0369 25.5958 10.4973 25.3493 11.6476L25.3507 11.6462L22.5599 24.7943C22.353 25.7265 21.7991 25.9531 21.0242 25.514L16.7742 22.3817L14.7243 24.3566C14.4976 24.5832 14.3064 24.7745 13.8672 24.7745L14.1689 20.4494L22.0456 13.3335C22.3884 13.0317 21.9691 12.8617 21.5172 13.1621L11.7833 19.2906L7.58711 17.9816C6.67619 17.6926 6.65636 17.0706 7.77978 16.6315Z" fill="white"/>
</svg>
