<svg width="26" height="26" viewBox="0 0 26 26" fill="none" xmlns="http://www.w3.org/2000/svg">
<path d="M13.0033 0H12.9967C5.82888 0 0 5.8305 0 13C0 15.8438 0.9165 18.4795 2.47487 20.6196L0.85475 25.4491L5.85162 23.8518C7.90725 25.2135 10.3594 26 13.0033 26C20.1711 26 26 20.1679 26 13C26 5.83213 20.1711 0 13.0033 0Z" fill="white"/>
<path d="M20.714 18.2574C20.3881 19.0607 19.0945 19.7269 18.0626 19.9214C17.3567 20.0526 16.4347 20.1573 13.3307 19.0342C9.36041 17.5986 6.80361 14.0775 6.60433 13.8491C6.4135 13.6206 5 11.9846 5 10.2926C5 8.60063 5.98455 7.77673 6.38141 7.423C6.70735 7.13265 7.24607 7 7.76283 7C7.93002 7 8.08032 7.00737 8.21542 7.01326C8.61228 7.028 8.81156 7.04864 9.07332 7.59544C9.39925 8.2808 10.193 9.9728 10.2875 10.1467C10.3838 10.3206 10.4801 10.5565 10.345 10.7849C10.2183 11.0207 10.1068 11.1254 9.90757 11.3258C9.70829 11.5263 9.51915 11.6795 9.31988 11.8947C9.13749 12.0819 8.93146 12.2824 9.16113 12.6287C9.3908 12.9677 10.1845 14.0982 11.3532 15.0061C12.8612 16.1778 14.0839 16.5522 14.5213 16.7113C14.8472 16.8293 15.2356 16.8013 15.4738 16.5802C15.776 16.2957 16.1493 15.8241 16.5292 15.3598C16.7994 15.0267 17.1406 14.9854 17.4986 15.1034C17.8634 15.2139 19.7936 16.0466 20.1905 16.2191C20.5874 16.393 20.8491 16.4755 20.9454 16.6214C21.0399 16.7674 21.0399 17.4527 20.714 18.2574Z" fill="#4DBE46"/>
</svg>
