<svg width="42" height="42" viewBox="0 0 42 42" fill="none" xmlns="http://www.w3.org/2000/svg">
<circle cx="21" cy="21" r="21" fill="#4DBE46"/>
<path d="M21.0022 12H20.9978C16.0354 12 12 16.0365 12 21C12 22.9688 12.6345 24.7935 13.7134 26.2751L12.5918 29.6186L16.0511 28.5128C17.4742 29.4555 19.1719 30 21.0022 30C25.9646 30 30 25.9624 30 21C30 16.0376 25.9646 12 21.0022 12Z" fill="white"/>
<path d="M26.8034 23.9379C26.5793 24.5043 25.69 24.9741 24.9806 25.1113C24.4953 25.2038 23.8613 25.2776 21.7274 24.4856C18.9978 23.4734 17.24 20.9906 17.103 20.8295C16.9718 20.6684 16 19.5148 16 18.3217C16 17.1286 16.6769 16.5477 16.9497 16.2983C17.1738 16.0935 17.5442 16 17.8994 16C18.0144 16 18.1177 16.0052 18.2106 16.0094C18.4834 16.0197 18.6204 16.0343 18.8004 16.4199C19.0245 16.9031 19.5702 18.0962 19.6352 18.2188C19.7014 18.3415 19.7675 18.5078 19.6747 18.6688C19.5876 18.8351 19.511 18.9089 19.374 19.0503C19.237 19.1916 19.1069 19.2997 18.9699 19.4514C18.8445 19.5834 18.7029 19.7247 18.8608 19.969C19.0187 20.208 19.5644 21.0051 20.3678 21.6453C21.4046 22.4715 22.2452 22.7355 22.5459 22.8477C22.77 22.9309 23.037 22.9111 23.2007 22.7552C23.4085 22.5547 23.6651 22.2221 23.9264 21.8947C24.1121 21.6599 24.3466 21.6308 24.5928 21.7139C24.8436 21.7918 26.1706 22.379 26.4435 22.5006C26.7163 22.6233 26.8963 22.6815 26.9624 22.7843C27.0275 22.8872 27.0275 23.3705 26.8034 23.9379Z" fill="#4DBE46"/>
</svg>
