<svg width="34" height="34" viewBox="0 0 34 34" fill="none" xmlns="http://www.w3.org/2000/svg">
<circle cx="17" cy="17" r="17" fill="#64D05D"/>
<path d="M17.0025 7.55566H16.9977C11.7903 7.55566 7.55566 11.7915 7.55566 17.0001C7.55566 19.0661 8.2215 20.9809 9.35365 22.5357L8.17664 26.0443L11.8068 24.8839C13.3002 25.8732 15.0817 26.4446 17.0025 26.4446C22.2099 26.4446 26.4446 22.2075 26.4446 17.0001C26.4446 11.7927 22.2099 7.55566 17.0025 7.55566Z" fill="white"/>
<path d="M22.464 20.4558C22.2331 21.0394 21.3168 21.5234 20.586 21.6647C20.0859 21.76 19.4328 21.836 17.2342 21.0201C14.4219 19.9772 12.6108 17.4191 12.4697 17.2532C12.3345 17.0872 11.3333 15.8987 11.3333 14.6694C11.3333 13.4402 12.0306 12.8416 12.3118 12.5847C12.5426 12.3737 12.9242 12.2773 13.2903 12.2773C13.4087 12.2773 13.5151 12.2827 13.6108 12.287C13.892 12.2977 14.0331 12.3127 14.2185 12.7099C14.4494 13.2078 15.0116 14.4371 15.0786 14.5634C15.1468 14.6898 15.215 14.8611 15.1193 15.0271C15.0295 15.1984 14.9506 15.2744 14.8094 15.42C14.6683 15.5657 14.5343 15.677 14.3932 15.8333C14.264 15.9693 14.118 16.115 14.2807 16.3666C14.4434 16.6129 15.0056 17.4341 15.8334 18.0937C16.9016 18.945 17.7677 19.217 18.0775 19.3326C18.3084 19.4183 18.5835 19.3979 18.7522 19.2373C18.9663 19.0306 19.2306 18.688 19.4998 18.3507C19.6912 18.1087 19.9328 18.0787 20.1864 18.1644C20.4448 18.2447 21.8121 18.8497 22.0932 18.975C22.3743 19.1013 22.5597 19.1613 22.6279 19.2673C22.6949 19.3733 22.6949 19.8712 22.464 20.4558Z" fill="#64D05D"/>
</svg>
